<svg width="52" height="40" viewBox="0 0 52 40" fill="none" xmlns="http://www.w3.org/2000/svg">
<g id="WOWA_Logo">
<path id="W-left" d="M11 12.5L8 15.5V39.5H10.5L13.5 34.5L16.5 39.5H19V21.5H15.5V32L13 29.5L11 32V12.5Z" fill="#E88636" stroke="#222F3F"/>
<path id="O" fill-rule="evenodd" clip-rule="evenodd" d="M20.5 21.5V39.5H31.5V21.5H20.5ZM24 36V24.5H28.5V36H24Z" fill="#E88636" stroke="#222F3F"/>
<path id="W-right" d="M36 21.5H33V39.5H35.5L38.5 34.5L41.5 39.5H44V30L40.5 26V32L38.5 29.5L36 32V21.5Z" fill="#E88636" stroke="#222F3F"/>
<path id="A" fill-rule="evenodd" clip-rule="evenodd" d="M2 30H7L15 20H37L45.5 30H50.5L26 1L2 30ZM18.5 16.5L26 7L33.5 16.5H18.5Z" fill="#E88636" stroke="#222F3F"/>
</g>
</svg>
