<svg width="486" height="382" viewBox="0 0 486 382" fill="none" xmlns="http://www.w3.org/2000/svg">
<g id="Wowa-logo">
<path id="W-left" d="M60 365C60 373.837 66 381 75.0074 380.97C82.5 380.97 107.194 341.432 107.194 341.432C111.996 335.533 121.004 335.533 125.806 341.432C125.806 341.432 151 380.97 158.017 381C166 381 175 373.837 175 365L174.5 197H140V304.5L126.806 288.432C122.004 282.533 112.996 282.533 108.194 288.432L95 304.5V248L60 288.5V365Z" fill="#D9D9D9" stroke="black"/>
<path id="W-right" d="M425 365C425 373.837 419 381 409.993 380.97C402.5 380.97 377.806 341.432 377.806 341.432C373.004 335.533 363.996 335.533 359.194 341.432C359.194 341.432 334 380.97 326.983 381C319 381 310 373.837 310 365L310.5 197H345V304.5L358.194 288.432C362.996 282.533 372.004 282.533 376.806 288.432L390 304.5V248L425 288.5V365Z" fill="#D9D9D9" stroke="black"/>
<path id="O" fill-rule="evenodd" clip-rule="evenodd" d="M185 197H300V365C300 373.837 292.837 381 284 381H201C192.163 381 185 373.837 185 365V197ZM266 232H220V347H266V232Z" fill="#D9D9D9" stroke="black"/>
<path id="A" fill-rule="evenodd" clip-rule="evenodd" d="M2 291H46L131.5 188.5H354.5L440 291H484L243 1.5L94.5 179.885V113.5L61 154V220.127L2 291ZM243 55L160.5 154.5H325.5L243 55Z" fill="#D9D9D9" stroke="black"/>
</g>
</svg>
